<svg width="25" height="24" viewBox="0 0 25 24" fill="none" xmlns="http://www.w3.org/2000/svg">
    <path
        d="M15.3302 11.2899L11.0902 7.04995C10.9972 6.95622 10.8866 6.88183 10.7648 6.83106C10.6429 6.78029 10.5122 6.75415 10.3802 6.75415C10.2482 6.75415 10.1175 6.78029 9.99561 6.83106C9.87375 6.88183 9.76315 6.95622 9.67019 7.04995C9.48394 7.23731 9.37939 7.49076 9.37939 7.75495C9.37939 8.01913 9.48394 8.27259 9.67019 8.45995L13.2102 11.9999L9.67019 15.5399C9.48394 15.7273 9.37939 15.9808 9.37939 16.2449C9.37939 16.5091 9.48394 16.7626 9.67019 16.9499C9.76363 17.0426 9.87444 17.116 9.99628 17.1657C10.1181 17.2155 10.2486 17.2407 10.3802 17.2399C10.5118 17.2407 10.6423 17.2155 10.7641 17.1657C10.8859 17.116 10.9967 17.0426 11.0902 16.9499L15.3302 12.7099C15.4239 12.617 15.4983 12.5064 15.5491 12.3845C15.5998 12.2627 15.626 12.132 15.626 11.9999C15.626 11.8679 15.5998 11.7372 15.5491 11.6154C15.4983 11.4935 15.4239 11.3829 15.3302 11.2899Z"
        fill="white" />
</svg>