<svg width="493" height="736" viewBox="0 0 493 736" fill="none" xmlns="http://www.w3.org/2000/svg">
<mask id="mask0" mask-type="alpha" maskUnits="userSpaceOnUse" x="0" y="0" width="493" height="736">
<rect width="493" height="736" rx="24" fill="#232340"/>
</mask>
<g mask="url(#mask0)">
<path d="M389.996 635.445C404.44 609.261 419.481 586.348 431.44 570.702C444.094 554.148 462.837 554.144 475.491 570.697C487.452 586.343 502.492 609.259 516.931 635.445C531.683 662.187 542.879 687.035 549.408 705.122C556.067 723.565 547.031 739.464 527.704 742.777C523.745 743.456 519.433 744.096 514.815 744.685C507.852 745.576 500.196 746.3 492.007 746.932C474.501 748.299 459.566 746.456 449.231 733.212C436.541 716.935 436.511 689.951 450.635 667.337C451.357 666.177 453.038 666.954 452.86 668.32C452 674.916 451.733 683.977 453.523 694.3C455.61 706.311 464.007 715.724 475.46 715.724C484.827 715.724 492.828 709.604 496.013 700.968C499.366 691.846 496.201 680.839 492.403 670.195C482.136 641.419 461.792 616.268 456.648 610.656C454.661 608.492 452.396 608.347 450.269 610.656C443.316 618.236 408.511 661.611 408.511 701.341C408.511 720.424 419.302 736.857 434.85 744.343C436.65 745.213 436.116 748.071 434.128 747.999C412.5 747.23 393.302 745.235 378.872 742.735C359.771 739.427 350.846 723.685 357.407 705.444C363.92 687.333 375.158 662.35 389.996 635.445Z" fill="white" fill-opacity="0.1"/>
</g>
</svg>
