<svg width="1408" height="720" viewBox="0 0 1408 720" fill="none" xmlns="http://www.w3.org/2000/svg">
<mask id="mask0" mask-type="alpha" maskUnits="userSpaceOnUse" x="0" y="3" width="1408" height="717">
<path fill-rule="evenodd" clip-rule="evenodd" d="M0 3H1408V720H1013.85H0V3Z" fill="#F9FBFE"/>
</mask>
<g mask="url(#mask0)">
</g>
<g opacity="0.05">
<path opacity="0.5653" d="M746.428 471.962L733.943 464.687V450.138L734.084 450.091L746.428 442.91L758.912 450.185V464.734L758.771 464.781L746.428 471.962ZM734.507 464.406L746.475 471.352L758.443 464.406V450.466L746.475 443.52L734.507 450.466V464.406Z" fill="white"/>
<path opacity="0.7657" d="M550.95 514.671L550.809 514.577L501.811 486.042V428.783L501.951 428.689L550.95 400.154L551.091 400.248L600.089 428.783V485.995L599.948 486.089L550.95 514.671ZM502.374 485.76L550.997 514.061L599.62 485.76V429.112L550.95 400.811L502.327 429.112V485.76H502.374Z" fill="white"/>
<path opacity="0.5793" d="M550.95 471.962L538.466 464.687V450.138L538.607 450.091L550.95 442.91L563.434 450.185V464.734L563.294 464.781L550.95 471.962ZM539.029 464.406L550.997 471.352L562.965 464.406V450.466L550.997 443.52L539.029 450.466V464.406Z" fill="white"/>
<path opacity="0.901" d="M648.712 657.02L624.025 642.611V613.841L624.166 613.747L648.712 599.433L673.399 613.841V642.611L673.258 642.705L648.712 657.02ZM624.542 642.33L648.712 656.41L672.883 642.33V614.17L648.712 600.09L624.542 614.17V642.33Z" fill="white"/>
<path opacity="0.8562" d="M648.711 685.462L599.572 656.832V599.574L599.713 599.527L648.711 570.991L697.851 599.621V656.879L697.71 656.926L648.711 685.462ZM600.089 656.551L648.711 684.851L697.334 656.551V599.902L648.711 571.601L600.089 599.902V656.551Z" fill="white"/>
<path opacity="0.9361" d="M746.427 514.671L746.286 514.577L648.43 457.6V343.411L648.571 343.317L746.427 286.293L746.568 286.387L844.424 343.411V457.6L844.283 457.647L746.427 514.671ZM648.994 457.272L746.474 514.061L843.955 457.272V343.693L746.474 286.904L648.994 343.693V457.272Z" fill="white"/>
<path opacity="0.6204" d="M648.712 400.811L648.571 400.717L599.573 372.181V314.923L599.714 314.829L648.712 286.293L648.853 286.387L697.851 314.923V372.181L697.71 372.275L648.712 400.811ZM600.089 371.853L648.712 400.154L697.335 371.853V315.251L648.712 286.951L600.089 315.251V371.853Z" fill="white"/>
<path opacity="0.9207" d="M844.19 514.671L844.049 514.577L795.051 486.042V428.783L795.192 428.689L844.19 400.154L844.331 400.248L893.329 428.783V485.995L893.188 486.089L844.19 514.671ZM795.567 485.76L844.19 514.061L892.813 485.76V429.112L844.19 400.811L795.567 429.112V485.76Z" fill="white"/>
<path opacity="0.7779" d="M746.427 543.113L721.74 528.751V499.981L721.881 499.887L746.427 485.572L771.114 499.981V528.751L770.973 528.798L746.427 543.113ZM722.256 528.422L746.427 542.502L770.598 528.422V500.262L746.427 486.182L722.256 500.262V528.422Z" fill="white"/>
<path opacity="0.6118" d="M648.712 471.962L636.228 464.687V450.138L636.368 450.091L648.712 442.91L661.196 450.185V464.734L661.055 464.781L648.712 471.962ZM636.744 464.406L648.712 471.352L660.68 464.406V450.466L648.712 443.52L636.744 450.466V464.406Z" fill="white"/>
<path opacity="0.6984" d="M844.189 486.182L819.502 471.821V443.051L819.643 443.004L844.189 428.689L868.876 443.051V471.821L868.735 471.915L844.189 486.182ZM820.018 471.492L844.189 485.572L868.36 471.492V443.332L844.189 429.252L820.018 443.332V471.492Z" fill="white"/>
<path opacity="0.8157" d="M844.19 628.531L844.049 628.438L795.051 599.902V542.69L795.192 542.596L844.19 514.061L844.331 514.155L893.329 542.69V599.902L893.188 599.949L844.19 628.531ZM795.567 599.62L844.19 627.968L892.813 599.62V542.972L844.19 514.671L795.567 542.972V599.62Z" fill="white"/>
<path opacity="0.5715" d="M681.566 704L648.994 684.992V571.46L746.427 514.671L843.908 571.46V684.992L811.336 704H812.369L844.283 685.415L844.424 685.321V571.132L746.568 514.155L746.427 514.061L648.571 571.038L648.431 571.132V685.321L680.533 704H681.566Z" fill="white"/>
<path opacity="0.8677" d="M714.607 704L746.428 685.461L778.248 704H779.281L746.428 684.851L713.574 704H714.607Z" fill="white"/>
<path opacity="0.5475" d="M648.994 704V685.321L746.427 628.531L843.908 685.321V704H844.424V684.992L746.568 628.015L746.427 627.921L648.571 684.945L648.431 684.992V704H648.994Z" fill="white"/>
<path opacity="0.8834" d="M746.427 685.462L697.288 656.832V599.574L697.429 599.527L746.427 570.991L795.566 599.621V656.879L795.426 656.926L746.427 685.462ZM697.851 656.551L746.474 684.851L795.097 656.551V599.902L746.474 571.601L697.851 599.902V656.551Z" fill="white"/>
<path opacity="0.5245" d="M828.185 704L820.018 699.26V671.1L844.189 657.02L868.36 671.1V699.26L860.193 704H861.226L868.876 699.541V670.771L844.189 656.41L819.502 670.771V699.541L827.152 704H828.185Z" fill="white"/>
<path opacity="0.7529" d="M714.607 704L746.428 685.461L778.248 704H779.281L746.428 684.851L713.574 704H714.607Z" fill="white"/>
<path opacity="0.8927" d="M746.428 358.102L733.943 350.827V336.278L734.084 336.184L746.428 329.003L758.912 336.278V350.827L758.771 350.921L746.428 358.102ZM734.507 350.498L746.475 357.445L758.443 350.498V336.559L746.475 329.613L734.507 336.559V350.498Z" fill="white"/>
<path opacity="0.8384" d="M941.905 372.322L917.218 357.914V329.143L917.359 329.05L941.905 314.735L966.592 329.143V357.914L966.451 358.007L941.905 372.322ZM917.734 357.632L941.905 371.712L966.075 357.632V329.472L941.905 315.392L917.734 329.472V357.632Z" fill="white"/>
<path opacity="0.6654" d="M844.189 543.113L819.502 528.751V499.981L819.643 499.887L844.189 485.572L868.876 499.981V528.751L868.735 528.798L844.189 543.113ZM820.018 528.422L844.189 542.502L868.36 528.422V500.262L844.189 486.182L820.018 500.262V528.422Z" fill="white"/>
<path opacity="0.6262" d="M746.428 471.962L733.943 464.687V450.138L734.084 450.091L746.428 442.91L758.912 450.185V464.734L758.771 464.781L746.428 471.962ZM734.507 464.406L746.475 471.352L758.443 464.406V450.466L746.475 443.52L734.507 450.466V464.406Z" fill="white"/>
<path opacity="0.5193" d="M746.428 585.822L733.943 578.547V563.998L734.084 563.904L746.428 556.723L758.912 563.998V578.547L758.771 578.641L746.428 585.822ZM734.507 578.266L746.475 585.212L758.443 578.266V564.326L746.475 557.38L734.507 564.326V578.266Z" fill="white"/>
<path opacity="0.9905" d="M941.905 628.531L941.764 628.438L892.766 599.902V542.69L892.906 542.596L941.905 514.061L942.046 514.155L991.044 542.69V599.902L990.903 599.949L941.905 628.531ZM893.282 599.62L941.905 627.968L990.528 599.62V542.972L941.905 514.671L893.282 542.972V599.62Z" fill="white"/>
<path opacity="0.517" d="M941.904 699.682L929.42 692.407V677.858L941.904 670.583L954.388 677.858V692.407L941.904 699.682ZM929.936 692.126L941.904 699.072L953.872 692.126V678.187L941.904 671.241L929.936 678.187V692.126Z" fill="white"/>
<path opacity="0.6479" d="M893.282 704V656.832L941.905 628.531L990.528 656.832V704H991.044V656.551L942.046 628.015L941.905 627.921L892.906 656.457L892.766 656.551V704H893.282Z" fill="white"/>
<path opacity="0.9857" d="M1039.67 372.322L1014.98 357.914V329.143L1015.12 329.05L1039.67 314.735L1064.35 329.143V357.914L1064.21 358.007L1039.67 372.322ZM1015.45 357.632L1039.62 371.712L1063.79 357.632V329.472L1039.62 315.392L1015.45 329.472V357.632Z" fill="white"/>
<path opacity="0.7696" d="M1039.67 628.531L1039.53 628.438L990.527 599.902V542.69L990.668 542.596L1039.67 514.061L1039.81 514.155L1088.81 542.69V599.902L1088.66 599.949L1039.67 628.531ZM991.044 599.62L1039.67 627.968L1088.29 599.62V542.972L1039.67 514.671L991.044 542.972V599.62Z" fill="white"/>
<path opacity="0.8062" d="M877.043 704L844.424 684.992V571.46L941.905 514.671L1039.39 571.46V684.992L1006.81 704H1007.85L1039.81 685.415L1039.9 685.321V571.132L942.046 514.155L941.905 514.061L844.049 571.038L843.908 571.132V685.321L876.011 704H877.043Z" fill="white"/>
<path opacity="0.9977" d="M1039.67 699.682L1027.18 692.407V677.858L1039.67 670.583L1052.15 677.858V692.407L1039.67 699.682ZM1027.7 692.126L1039.67 699.072L1051.63 692.126V678.187L1039.67 671.241L1027.7 678.187V692.126Z" fill="white"/>
<path opacity="0.6323" d="M795.567 704V656.832L844.19 628.531L892.766 656.832V704H893.282V656.551L844.284 628.015L844.19 627.921L795.192 656.457L795.051 656.551V704H795.567Z" fill="white"/>
<path opacity="0.5774" d="M844.189 699.682L831.705 692.407V677.858L844.189 670.583L856.674 677.858V692.407L844.189 699.682ZM832.221 692.126L844.189 699.072L856.157 692.126V678.187L844.189 671.241L832.221 678.187V692.126Z" fill="white"/>
<path opacity="0.6004" d="M795.567 704V656.832L844.19 628.531L892.766 656.832V704H893.282V656.551L844.284 628.015L844.19 627.921L795.192 656.457L795.051 656.551V704H795.567Z" fill="white"/>
<path opacity="0.6006" d="M910.083 704L941.904 685.461L973.725 704H974.757L941.904 684.851L909.051 704H910.083Z" fill="white"/>
<path opacity="0.6198" d="M941.904 358.102L929.42 350.827V336.278L929.561 336.184L941.904 329.003L954.388 336.278V350.827L954.248 350.921L941.904 358.102ZM929.936 350.498L941.904 357.445L953.872 350.498V336.559L941.904 329.613L929.936 336.559V350.498Z" fill="white"/>
<path opacity="0.9164" d="M941.904 471.962L929.42 464.687V450.138L929.561 450.091L941.904 442.91L954.388 450.185V464.734L954.248 464.781L941.904 471.962ZM929.936 464.406L941.904 471.352L953.872 464.406V450.466L941.904 443.52L929.936 450.466V464.406Z" fill="white"/>
<path opacity="0.5577" d="M941.905 628.531L941.764 628.438L892.766 599.902V542.69L892.906 542.596L941.905 514.061L942.046 514.155L991.044 542.69V599.902L990.903 599.949L941.905 628.531ZM893.282 599.62L941.905 627.968L990.528 599.62V542.972L941.905 514.671L893.282 542.972V599.62Z" fill="white"/>
<path opacity="0.6643" d="M1137.38 600.043L1112.7 585.681V556.911L1112.84 556.817L1137.38 542.502L1162.07 556.911V585.681L1161.93 585.728L1137.38 600.043ZM1113.21 585.353L1137.38 599.433L1161.55 585.353V557.193L1137.38 543.113L1113.21 557.193V585.353Z" fill="white"/>
<path opacity="0.9482" d="M1039.67 685.462L990.527 656.832V599.574L990.668 599.527L1039.67 570.991L1088.81 599.621V656.879L1088.66 656.926L1039.67 685.462ZM991.044 656.551L1039.67 684.851L1088.29 656.551V599.902L1039.67 571.601L991.044 599.902V656.551Z" fill="white"/>
<path opacity="0.8287" d="M1137.38 628.531L1137.24 628.437L1039.38 571.413V457.272L1039.53 457.225L1137.38 400.201L1137.52 400.295L1235.38 457.319V571.507L1235.24 571.601L1137.38 628.531ZM1039.9 571.132L1137.38 627.921L1234.86 571.132V457.6L1137.38 400.811L1039.9 457.6V571.132Z" fill="white"/>
<path opacity="0.9627" d="M1039.67 471.962L1027.18 464.687V450.138L1027.32 450.091L1039.67 442.91L1052.15 450.185V464.734L1052.01 464.781L1039.67 471.962ZM1027.7 464.406L1039.67 471.352L1051.63 464.406V450.466L1039.67 443.52L1027.7 450.466V464.406Z" fill="white"/>
<path opacity="0.6877" d="M1235.14 514.671L1235 514.577L1186 486.042V428.783L1186.15 428.689L1235.14 400.154L1235.28 400.248L1284.28 428.783V485.995L1284.14 486.089L1235.14 514.671ZM1186.52 485.76L1235.14 514.061L1283.77 485.76V429.112L1235.14 400.811L1186.52 429.112V485.76Z" fill="white"/>
<path opacity="0.5544" d="M1137.38 657.02L1112.7 642.611V613.841L1112.84 613.747L1137.38 599.433L1162.07 613.841V642.611L1161.93 642.705L1137.38 657.02ZM1113.21 642.33L1137.38 656.41L1161.55 642.33V614.17L1137.38 600.09L1113.21 614.17V642.33Z" fill="white"/>
<path opacity="0.8016" d="M1137.38 571.601L1137.24 571.507L1088.24 542.972V485.713L1088.38 485.619L1137.38 457.084L1137.52 457.178L1186.52 485.713V542.972L1186.38 543.066L1137.38 571.601ZM1088.76 542.69L1137.38 570.991L1186.01 542.69V486.042L1137.38 457.741L1088.76 486.042V542.69Z" fill="white"/>
<path opacity="0.5003" d="M1105.56 704L1137.38 685.461L1169.2 704H1170.24L1137.38 684.851L1104.53 704H1105.56Z" fill="white"/>
<path opacity="0.7569" d="M991.044 704V656.832L1039.67 628.531L1088.24 656.832V704H1088.76V656.551L1039.81 628.015L1039.67 627.921L990.668 656.457L990.527 656.551V704H991.044Z" fill="white"/>
<path opacity="0.9339" d="M1137.38 685.462L1088.24 656.832V599.574L1088.38 599.527L1137.38 570.991L1186.52 599.621V656.879L1186.38 656.926L1137.38 685.462ZM1088.76 656.551L1137.38 684.851L1186.01 656.551V599.902L1137.38 571.601L1088.76 599.902V656.551Z" fill="white"/>
<path opacity="0.6722" d="M1219.09 704L1210.97 699.26V671.1L1235.14 657.02L1259.31 671.1V699.26L1251.15 704H1252.18L1259.83 699.541V670.771L1235.14 656.41L1210.41 670.771V699.541L1218.06 704H1219.09Z" fill="white"/>
<path opacity="0.5645" d="M1105.56 704L1137.38 685.461L1169.2 704H1170.24L1137.38 684.851L1104.53 704H1105.56Z" fill="white"/>
<path opacity="0.7115" d="M1137.38 358.102L1124.9 350.827V336.278L1125.04 336.184L1137.38 329.003L1149.87 336.278V350.827L1149.73 350.921L1137.38 358.102ZM1125.41 350.498L1137.38 357.445L1149.35 350.498V336.559L1137.38 329.613L1125.41 336.559V350.498Z" fill="white"/>
<path opacity="0.6307" d="M1137.38 400.811L1137.24 400.717L1088.24 372.181V314.923L1088.38 314.829L1137.38 286.293L1137.52 286.387L1186.52 314.923V372.181L1186.38 372.275L1137.38 400.811ZM1088.76 371.853L1137.38 400.154L1186.01 371.853V315.251L1137.38 286.951L1088.76 315.251V371.853Z" fill="white"/>
<path opacity="0.9278" d="M1332.86 400.811L1332.72 400.717L1283.72 372.181V314.923L1283.86 314.829L1332.86 286.293L1382 314.923V372.181L1381.86 372.275L1332.86 400.811ZM1284.24 371.853L1332.86 400.154L1381.48 371.853V315.251L1332.86 286.951L1284.24 315.251V371.853Z" fill="white"/>
<path opacity="0.6392" d="M1332.86 514.671L1283.72 486.042V428.783L1283.86 428.689L1332.86 400.154L1382 428.783V485.995L1381.86 486.089L1332.86 514.671ZM1284.24 485.76L1332.86 514.061L1381.48 485.76V429.112L1332.86 400.811L1284.24 429.112V485.76Z" fill="white"/>
<path opacity="0.8937" d="M1235.14 628.531L1235 628.437L1137.15 571.413V457.272L1137.29 457.225L1235.14 400.201L1235.29 400.295L1333.14 457.319V571.507L1333 571.601L1235.14 628.531ZM1137.66 571.132L1235.14 627.921L1332.62 571.132V457.6L1235.14 400.811L1137.66 457.6V571.132Z" fill="white"/>
<path opacity="0.6526" d="M1137.38 471.962L1124.9 464.687V450.138L1125.04 450.091L1137.38 442.91L1149.87 450.185V464.734L1149.73 464.781L1137.38 471.962ZM1125.41 464.406L1137.38 471.352L1149.35 464.406V450.466L1137.38 443.52L1125.41 450.466V464.406Z" fill="white"/>
<path opacity="0.6213" d="M1137.38 585.822L1124.9 578.547V563.998L1125.04 563.904L1137.38 556.723L1149.87 563.998V578.547L1149.73 578.641L1137.38 585.822ZM1125.41 578.266L1137.38 585.212L1149.35 578.266V564.326L1137.38 557.38L1125.41 564.326V578.266Z" fill="white"/>
<path opacity="0.9916" d="M1332.86 699.682L1320.38 692.407V677.858L1332.86 670.583L1345.34 677.858V692.407L1332.86 699.682ZM1320.89 692.126L1332.86 699.072L1344.83 692.126V678.187L1332.86 671.241L1320.89 678.187V692.126Z" fill="white"/>
<path opacity="0.5206" d="M1235.14 471.962L1222.66 464.687V450.138L1222.8 450.091L1235.14 442.91L1247.63 450.185V464.734L1247.49 464.781L1235.14 471.962ZM1223.18 464.406L1235.14 471.352L1247.11 464.406V450.466L1235.14 443.52L1223.18 450.466V464.406Z" fill="white"/>
<path opacity="0.5092" d="M1235.14 514.671L1235 514.577L1186 486.042V428.783L1186.15 428.689L1235.14 400.154L1235.28 400.248L1284.28 428.783V485.995L1284.14 486.089L1235.14 514.671ZM1186.52 485.76L1235.14 514.061L1283.77 485.76V429.112L1235.14 400.811L1186.52 429.112V485.76Z" fill="white"/>
<path opacity="0.6455" d="M1408 614.78L1382 599.62V542.972L1408 527.812V527.202L1381.62 542.596L1381.48 542.69V599.902L1408 615.39V614.78Z" fill="white"/>
<path opacity="0.5075" d="M1332.86 685.462L1283.72 656.832V599.574L1283.86 599.527L1332.86 570.991L1382 599.621V656.879L1381.86 656.926L1332.86 685.462ZM1284.24 656.551L1332.86 684.851L1381.48 656.551V599.902L1332.86 571.601L1284.24 599.902V656.551Z" fill="white"/>
<path opacity="0.6536" d="M1408 586.291L1406.4 585.353V557.193L1408 556.301V555.691L1406.03 556.817L1405.89 556.911V585.681L1408 586.902V586.291Z" fill="white"/>
<path opacity="0.716" d="M1301.04 704L1332.86 685.461L1364.68 704H1365.71L1332.86 684.851L1300.01 704H1301.04Z" fill="white"/>
<path opacity="0.6878" d="M1186.52 704V656.832L1235.14 628.531L1283.72 656.832V704H1284.24V656.551L1235.24 628.015L1235.14 627.921L1186.15 656.457L1186 656.551V704H1186.52Z" fill="white"/>
<path opacity="0.8538" d="M1332.86 685.462L1283.72 656.832V599.574L1283.86 599.527L1332.86 570.991L1382 599.621V656.879L1381.86 656.926L1332.86 685.462ZM1284.24 656.551L1332.86 684.851L1381.48 656.551V599.902L1332.86 571.601L1284.24 599.902V656.551Z" fill="white"/>
<path opacity="0.811" d="M1408 614.78L1333.14 571.132V457.6L1408 413.952V413.342L1332.72 457.178L1332.62 457.271V571.46L1408 615.39V614.78Z" fill="white"/>
<path opacity="0.6353" d="M1365.71 704L1333.14 684.992V571.46L1408 527.812V527.202L1332.72 571.038L1332.62 571.132V685.32L1364.68 704H1365.71Z" fill="white"/>
<path opacity="0.9972" d="M1408 557.85L1382 542.69V486.042L1408 470.882V470.272L1381.62 485.666L1381.48 485.76V542.972L1408 558.413V557.85Z" fill="white"/>
<path opacity="0.9775" d="M1398.75 704L1408 698.65V698.04L1397.72 704H1398.75Z" fill="white"/>
<path opacity="0.6343" d="M1398.75 704L1408 698.65V698.04L1397.72 704H1398.75Z" fill="white"/>
<path opacity="0.8543" d="M1408 387.013L1382 371.853V315.252L1408 300.092V299.482L1381.62 314.876L1381.48 314.923V372.182L1408 387.623V387.013Z" fill="white"/>
<path opacity="0.6795" d="M1382 704V656.832L1408 641.673V641.062L1381.62 656.457L1381.48 656.55V704H1382Z" fill="white"/>
<path opacity="0.8144" d="M737.322 464.546C737.322 466.283 735.914 467.691 734.225 467.691C732.488 467.691 731.127 466.283 731.127 464.546C731.127 462.81 732.535 461.402 734.225 461.402C735.961 461.402 737.322 462.81 737.322 464.546Z" fill="white"/>
<path opacity="0.728" d="M749.572 471.68C749.572 473.417 748.164 474.825 746.475 474.825C744.738 474.825 743.377 473.417 743.377 471.68C743.377 469.944 744.785 468.536 746.475 468.536C748.164 468.489 749.572 469.897 749.572 471.68Z" fill="white"/>
<path opacity="0.7587" d="M761.774 464.546C761.774 466.283 760.366 467.691 758.63 467.691C756.893 467.691 755.532 466.283 755.532 464.546C755.532 462.81 756.94 461.402 758.63 461.402C760.366 461.402 761.774 462.81 761.774 464.546Z" fill="white"/>
<path opacity="0.7652" d="M554.095 514.342C554.095 516.079 552.687 517.487 550.997 517.487C549.26 517.487 547.899 516.079 547.899 514.342C547.899 512.606 549.307 511.198 550.997 511.198C552.687 511.198 554.095 512.606 554.095 514.342Z" fill="white"/>
<path opacity="0.9334" d="M541.892 450.278C541.892 452.015 540.484 453.423 538.794 453.423C537.057 453.423 535.649 452.015 535.649 450.278C535.649 448.542 537.057 447.134 538.794 447.134C540.484 447.181 541.892 448.589 541.892 450.278Z" fill="white"/>
<path opacity="0.6915" d="M676.262 642.471C676.262 644.207 674.854 645.615 673.164 645.615C671.428 645.615 670.066 644.207 670.066 642.471C670.066 640.734 671.474 639.326 673.164 639.326C674.854 639.326 676.262 640.734 676.262 642.471Z" fill="white"/>
<path opacity="0.5175" d="M602.952 656.691C602.952 658.428 601.544 659.836 599.854 659.836C598.118 659.836 596.71 658.428 596.71 656.691C596.71 654.955 598.118 653.547 599.854 653.547C601.544 653.547 602.952 654.955 602.952 656.691Z" fill="white"/>
<path opacity="0.7801" d="M700.715 599.761C700.715 601.498 699.307 602.906 697.617 602.906C695.881 602.906 694.52 601.498 694.52 599.761C694.52 598.025 695.928 596.617 697.617 596.617C699.307 596.617 700.715 598.025 700.715 599.761Z" fill="white"/>
<path opacity="0.8122" d="M602.952 599.761C602.952 601.498 601.544 602.906 599.854 602.906C598.118 602.906 596.71 601.498 596.71 599.761C596.71 598.025 598.118 596.617 599.854 596.617C601.544 596.617 602.952 598.025 602.952 599.761Z" fill="white"/>
<path opacity="0.7332" d="M651.81 457.413C651.81 459.149 650.402 460.557 648.665 460.557C646.928 460.557 645.567 459.149 645.567 457.413C645.567 455.676 646.975 454.268 648.665 454.268C650.448 454.268 651.81 455.676 651.81 457.413Z" fill="white"/>
<path opacity="0.6303" d="M651.81 343.552C651.81 345.289 650.402 346.697 648.665 346.697C646.928 346.697 645.567 345.289 645.567 343.552C645.567 341.816 646.975 340.408 648.665 340.408C650.448 340.408 651.81 341.816 651.81 343.552Z" fill="white"/>
<path opacity="0.5225" d="M700.715 372.041C700.715 373.777 699.307 375.185 697.617 375.185C695.881 375.185 694.52 373.777 694.52 372.041C694.52 370.304 695.928 368.896 697.617 368.896C699.307 368.896 700.715 370.304 700.715 372.041Z" fill="white"/>
<path opacity="0.7847" d="M602.952 315.063C602.952 316.8 601.544 318.208 599.854 318.208C598.118 318.208 596.71 316.8 596.71 315.063C596.71 313.327 598.118 311.919 599.854 311.919C601.544 311.919 602.952 313.374 602.952 315.063Z" fill="white"/>
<path opacity="0.9423" d="M749.572 542.831C749.572 544.568 748.164 545.976 746.475 545.976C744.738 545.976 743.377 544.568 743.377 542.831C743.377 541.095 744.785 539.687 746.475 539.687C748.164 539.687 749.572 541.095 749.572 542.831Z" fill="white"/>
<path opacity="0.8348" d="M773.976 500.122C773.976 501.858 772.568 503.266 770.879 503.266C769.142 503.266 767.734 501.858 767.734 500.122C767.734 498.385 769.142 496.977 770.879 496.977C772.615 496.977 773.976 498.385 773.976 500.122Z" fill="white"/>
<path opacity="0.6404" d="M725.119 500.122C725.119 501.858 723.711 503.266 722.021 503.266C720.285 503.266 718.924 501.858 718.924 500.122C718.924 498.385 720.332 496.977 722.021 496.977C723.711 496.977 725.119 498.385 725.119 500.122Z" fill="white"/>
<path opacity="0.8945" d="M822.882 471.68C822.882 473.417 821.474 474.825 819.784 474.825C818.048 474.825 816.64 473.417 816.64 471.68C816.64 469.944 818.048 468.536 819.784 468.536C821.474 468.489 822.882 469.897 822.882 471.68Z" fill="white"/>
<path opacity="0.8456" d="M847.287 485.901C847.287 487.637 845.879 489.045 844.189 489.045C842.453 489.045 841.092 487.637 841.092 485.901C841.092 484.164 842.5 482.756 844.189 482.756C845.879 482.756 847.287 484.164 847.287 485.901Z" fill="white"/>
<path opacity="0.9902" d="M798.43 599.761C798.43 601.498 797.022 602.906 795.332 602.906C793.642 602.906 792.234 601.498 792.234 599.761C792.234 598.025 793.642 596.617 795.332 596.617C797.022 596.617 798.43 598.025 798.43 599.761Z" fill="white"/>
<path opacity="0.7274" d="M847.287 685.18C847.287 686.916 845.879 688.324 844.189 688.324C842.453 688.324 841.092 686.916 841.092 685.18C841.092 683.443 842.5 682.035 844.189 682.035C845.879 682.035 847.287 683.443 847.287 685.18Z" fill="white"/>
<path opacity="0.9855" d="M749.572 628.25C749.572 629.986 748.164 631.394 746.475 631.394C744.738 631.394 743.377 629.986 743.377 628.25C743.377 626.513 744.785 625.105 746.475 625.105C748.164 625.058 749.572 626.466 749.572 628.25Z" fill="white"/>
<path opacity="0.5371" d="M822.882 699.401C822.882 701.137 821.474 702.545 819.784 702.545C818.048 702.545 816.64 701.137 816.64 699.401C816.64 697.664 818.048 696.256 819.784 696.256C821.474 696.256 822.882 697.664 822.882 699.401Z" fill="white"/>
<path opacity="0.7825" d="M746.428 332.476C748.138 332.476 749.525 331.068 749.525 329.332C749.525 327.595 748.138 326.187 746.428 326.187C744.717 326.187 743.33 327.595 743.33 329.332C743.33 331.068 744.717 332.476 746.428 332.476Z" fill="white"/>
<path opacity="0.5344" d="M871.739 528.563C871.739 530.3 870.331 531.708 868.595 531.708C866.858 531.708 865.497 530.3 865.497 528.563C865.497 526.827 866.905 525.419 868.595 525.419C870.331 525.466 871.739 526.874 871.739 528.563Z" fill="white"/>
<path opacity="0.9922" d="M822.882 500.122C822.882 501.858 821.474 503.266 819.784 503.266C818.048 503.266 816.64 501.858 816.64 500.122C816.64 498.385 818.048 496.977 819.784 496.977C821.474 496.977 822.882 498.385 822.882 500.122Z" fill="white"/>
<path opacity="0.6301" d="M737.322 464.546C737.322 466.283 735.914 467.691 734.225 467.691C732.488 467.691 731.127 466.283 731.127 464.546C731.127 462.81 732.535 461.402 734.225 461.402C735.961 461.402 737.322 462.81 737.322 464.546Z" fill="white"/>
<path opacity="0.8077" d="M761.774 564.186C761.774 565.922 760.366 567.33 758.63 567.33C756.893 567.33 755.532 565.922 755.532 564.186C755.532 562.449 756.94 561.041 758.63 561.041C760.366 561.041 761.774 562.449 761.774 564.186Z" fill="white"/>
<path opacity="0.7663" d="M896.144 599.761C896.144 601.498 894.736 602.906 893.047 602.906C891.31 602.906 889.949 601.498 889.949 599.761C889.949 598.025 891.357 596.617 893.047 596.617C894.783 596.617 896.144 598.025 896.144 599.761Z" fill="white"/>
<path opacity="0.5432" d="M945.049 628.25C945.049 629.986 943.641 631.394 941.951 631.394C940.215 631.394 938.807 629.986 938.807 628.25C938.807 626.513 940.215 625.105 941.951 625.105C943.641 625.058 945.049 626.466 945.049 628.25Z" fill="white"/>
<path opacity="0.8535" d="M993.906 599.761C993.906 601.498 992.498 602.906 990.762 602.906C989.025 602.906 987.664 601.498 987.664 599.761C987.664 598.025 989.072 596.617 990.762 596.617C992.498 596.617 993.906 598.025 993.906 599.761Z" fill="white"/>
<path opacity="0.5589" d="M993.906 542.831C993.906 544.568 992.498 545.976 990.762 545.976C989.025 545.976 987.664 544.568 987.664 542.831C987.664 541.095 989.072 539.687 990.762 539.687C992.498 539.687 993.906 541.095 993.906 542.831Z" fill="white"/>
<path opacity="0.8499" d="M945.049 514.342C945.049 516.079 943.641 517.487 941.951 517.487C940.215 517.487 938.807 516.079 938.807 514.342C938.807 512.606 940.215 511.198 941.951 511.198C943.641 511.198 945.049 512.606 945.049 514.342Z" fill="white"/>
<path opacity="0.6091" d="M932.847 678.046C932.847 679.782 931.439 681.19 929.702 681.19C927.966 681.19 926.604 679.782 926.604 678.046C926.604 676.309 928.012 674.901 929.702 674.901C931.439 674.901 932.847 676.309 932.847 678.046Z" fill="white"/>
<path opacity="0.5784" d="M1042.76 315.063C1042.76 316.8 1041.36 318.208 1039.67 318.208C1037.93 318.208 1036.57 316.8 1036.57 315.063C1036.57 313.327 1037.98 311.919 1039.67 311.919C1041.36 311.919 1042.76 313.374 1042.76 315.063Z" fill="white"/>
<path opacity="0.7656" d="M1042.76 628.25C1042.76 629.986 1041.36 631.394 1039.67 631.394C1037.93 631.394 1036.57 629.986 1036.57 628.25C1036.57 626.513 1037.98 625.105 1039.67 625.105C1041.36 625.058 1042.76 626.466 1042.76 628.25Z" fill="white"/>
<path opacity="0.5656" d="M847.287 685.18C847.287 686.916 845.879 688.324 844.189 688.324C842.453 688.324 841.092 686.916 841.092 685.18C841.092 683.443 842.5 682.035 844.189 682.035C845.879 682.035 847.287 683.443 847.287 685.18Z" fill="white"/>
<path opacity="0.9124" d="M1030.56 692.267C1030.56 694.003 1029.15 695.411 1027.46 695.411C1025.73 695.411 1024.37 694.003 1024.37 692.267C1024.37 690.53 1025.78 689.122 1027.46 689.122C1029.15 689.122 1030.56 690.53 1030.56 692.267Z" fill="white"/>
<path opacity="0.9768" d="M835.084 692.267C835.084 694.003 833.676 695.411 831.986 695.411C830.25 695.411 828.889 694.003 828.889 692.267C828.889 690.53 830.297 689.122 831.986 689.122C833.676 689.122 835.084 690.53 835.084 692.267Z" fill="white"/>
<path opacity="0.9016" d="M932.847 350.686C932.847 352.423 931.439 353.831 929.702 353.831C927.966 353.831 926.604 352.423 926.604 350.686C926.604 348.95 928.012 347.542 929.702 347.542C931.439 347.542 932.847 348.95 932.847 350.686Z" fill="white"/>
<path opacity="0.6844" d="M945.049 443.191C945.049 444.928 943.641 446.336 941.951 446.336C940.215 446.336 938.807 444.928 938.807 443.191C938.807 441.455 940.215 440.047 941.951 440.047C943.641 440.047 945.049 441.455 945.049 443.191Z" fill="white"/>
<path opacity="0.9473" d="M1140.53 599.761C1140.53 601.498 1139.12 602.906 1137.43 602.906C1135.69 602.906 1134.33 601.498 1134.33 599.761C1134.33 598.025 1135.74 596.617 1137.43 596.617C1139.12 596.617 1140.53 598.025 1140.53 599.761Z" fill="white"/>
<path opacity="0.9003" d="M1091.62 599.761C1091.62 601.498 1090.21 602.906 1088.52 602.906C1086.79 602.906 1085.43 601.498 1085.43 599.761C1085.43 598.025 1086.83 596.617 1088.52 596.617C1090.21 596.617 1091.62 598.025 1091.62 599.761Z" fill="white"/>
<path opacity="0.935" d="M1042.76 571.272C1042.76 573.009 1041.36 574.417 1039.67 574.417C1037.93 574.417 1036.57 573.009 1036.57 571.272C1036.57 569.536 1037.98 568.128 1039.67 568.128C1041.36 568.128 1042.76 569.583 1042.76 571.272Z" fill="white"/>
<path opacity="0.5725" d="M1042.76 457.413C1042.76 459.149 1041.36 460.557 1039.67 460.557C1037.93 460.557 1036.57 459.149 1036.57 457.413C1036.57 455.676 1037.98 454.268 1039.67 454.268C1041.36 454.268 1042.76 455.676 1042.76 457.413Z" fill="white"/>
<path opacity="0.7228" d="M1055.01 464.546C1055.01 466.283 1053.61 467.691 1051.87 467.691C1050.13 467.691 1048.77 466.283 1048.77 464.546C1048.77 462.81 1050.18 461.402 1051.87 461.402C1053.61 461.402 1055.01 462.81 1055.01 464.546Z" fill="white"/>
<path opacity="0.7894" d="M1238.24 400.482C1238.24 402.219 1236.83 403.627 1235.14 403.627C1233.41 403.627 1232 402.219 1232 400.482C1232 398.746 1233.41 397.338 1235.14 397.338C1236.83 397.338 1238.24 398.746 1238.24 400.482Z" fill="white"/>
<path opacity="0.8898" d="M1189.38 428.971C1189.38 430.707 1187.98 432.115 1186.29 432.115C1184.55 432.115 1183.19 430.707 1183.19 428.971C1183.19 427.234 1184.6 425.826 1186.29 425.826C1187.98 425.779 1189.38 427.234 1189.38 428.971Z" fill="white"/>
<path opacity="0.5427" d="M1116.07 613.982C1116.07 615.718 1114.67 617.126 1112.98 617.126C1111.24 617.126 1109.83 615.718 1109.83 613.982C1109.83 612.245 1111.24 610.837 1112.98 610.837C1114.67 610.837 1116.07 612.245 1116.07 613.982Z" fill="white"/>
<path opacity="0.8321" d="M1189.38 542.831C1189.38 544.568 1187.98 545.976 1186.29 545.976C1184.55 545.976 1183.19 544.568 1183.19 542.831C1183.19 541.095 1184.6 539.687 1186.29 539.687C1187.98 539.687 1189.38 541.095 1189.38 542.831Z" fill="white"/>
<path opacity="0.5515" d="M1140.53 685.18C1140.53 686.916 1139.12 688.324 1137.43 688.324C1135.69 688.324 1134.33 686.916 1134.33 685.18C1134.33 683.443 1135.74 682.035 1137.43 682.035C1139.12 682.035 1140.53 683.443 1140.53 685.18Z" fill="white"/>
<path opacity="0.7361" d="M1042.76 628.25C1042.76 629.986 1041.36 631.394 1039.67 631.394C1037.93 631.394 1036.57 629.986 1036.57 628.25C1036.57 626.513 1037.98 625.105 1039.67 625.105C1041.36 625.058 1042.76 626.466 1042.76 628.25Z" fill="white"/>
<path opacity="0.5694" d="M1189.38 656.691C1189.38 658.428 1187.98 659.836 1186.29 659.836C1184.55 659.836 1183.14 658.428 1183.14 656.691C1183.14 654.955 1184.55 653.547 1186.29 653.547C1187.98 653.547 1189.38 654.955 1189.38 656.691Z" fill="white"/>
<path opacity="0.7041" d="M1091.62 599.761C1091.62 601.498 1090.21 602.906 1088.52 602.906C1086.79 602.906 1085.43 601.498 1085.43 599.761C1085.43 598.025 1086.83 596.617 1088.52 596.617C1090.21 596.617 1091.62 598.025 1091.62 599.761Z" fill="white"/>
<path opacity="0.9472" d="M1262.69 699.401C1262.69 701.137 1261.29 702.545 1259.6 702.545C1257.91 702.545 1256.5 701.137 1256.5 699.401C1256.5 697.664 1257.91 696.256 1259.6 696.256C1261.29 696.256 1262.69 697.664 1262.69 699.401Z" fill="white"/>
<path opacity="0.988" d="M1238.24 656.691C1238.24 658.428 1236.83 659.836 1235.14 659.836C1233.41 659.836 1232 658.428 1232 656.691C1232 654.955 1233.41 653.547 1235.14 653.547C1236.83 653.547 1238.24 654.955 1238.24 656.691Z" fill="white"/>
<path opacity="0.5764" d="M1137.38 332.476C1139.09 332.476 1140.48 331.068 1140.48 329.332C1140.48 327.595 1139.09 326.187 1137.38 326.187C1135.67 326.187 1134.28 327.595 1134.28 329.332C1134.28 331.068 1135.67 332.476 1137.38 332.476Z" fill="white"/>
<path opacity="0.6501" d="M1091.62 372.041C1091.62 373.777 1090.21 375.185 1088.52 375.185C1086.79 375.185 1085.43 373.777 1085.43 372.041C1085.43 370.304 1086.83 368.896 1088.52 368.896C1090.21 368.896 1091.62 370.304 1091.62 372.041Z" fill="white"/>
<path opacity="0.6553" d="M1287.1 372.041C1287.1 373.777 1285.69 375.185 1283.95 375.185C1282.22 375.185 1280.86 373.777 1280.86 372.041C1280.86 370.304 1282.27 368.896 1283.95 368.896C1285.74 368.896 1287.1 370.304 1287.1 372.041Z" fill="white"/>
<path opacity="0.6531" d="M1335.96 514.342C1335.96 516.079 1334.55 517.487 1332.86 517.487C1331.12 517.487 1329.76 516.079 1329.76 514.342C1329.76 512.606 1331.17 511.198 1332.86 511.198C1334.6 511.198 1335.96 512.606 1335.96 514.342Z" fill="white"/>
<path opacity="0.7985" d="M1384.86 485.901C1384.86 487.637 1383.45 489.045 1381.76 489.045C1380.03 489.045 1378.67 487.637 1378.67 485.901C1378.67 484.164 1380.07 482.756 1381.76 482.756C1383.45 482.756 1384.86 484.164 1384.86 485.901Z" fill="white"/>
<path opacity="0.8668" d="M1128.28 464.546C1128.28 466.283 1126.87 467.691 1125.18 467.691C1123.44 467.691 1122.08 466.283 1122.08 464.546C1122.08 462.81 1123.49 461.402 1125.18 461.402C1126.92 461.402 1128.28 462.81 1128.28 464.546Z" fill="white"/>
<path opacity="0.8785" d="M1140.53 443.191C1140.53 444.928 1139.12 446.336 1137.43 446.336C1135.69 446.336 1134.33 444.928 1134.33 443.191C1134.33 441.455 1135.74 440.047 1137.43 440.047C1139.12 440.047 1140.53 441.455 1140.53 443.191Z" fill="white"/>
<path opacity="0.74" d="M1128.28 578.406C1128.28 580.143 1126.87 581.551 1125.18 581.551C1123.44 581.551 1122.08 580.143 1122.08 578.406C1122.08 576.67 1123.49 575.262 1125.18 575.262C1126.92 575.262 1128.28 576.67 1128.28 578.406Z" fill="white"/>
<path opacity="0.9974" d="M1140.53 585.541C1140.53 587.277 1139.12 588.685 1137.43 588.685C1135.69 588.685 1134.33 587.277 1134.33 585.541C1134.33 583.804 1135.74 582.396 1137.43 582.396C1139.12 582.396 1140.53 583.804 1140.53 585.541Z" fill="white"/>
<path opacity="0.9965" d="M1152.73 564.186C1152.73 565.922 1151.32 567.33 1149.63 567.33C1147.9 567.33 1146.53 565.922 1146.53 564.186C1146.53 562.449 1147.94 561.041 1149.63 561.041C1151.32 561.041 1152.73 562.449 1152.73 564.186Z" fill="white"/>
<path opacity="0.5958" d="M1128.28 564.186C1128.28 565.922 1126.87 567.33 1125.18 567.33C1123.44 567.33 1122.08 565.922 1122.08 564.186C1122.08 562.449 1123.49 561.041 1125.18 561.041C1126.92 561.041 1128.28 562.449 1128.28 564.186Z" fill="white"/>
<path opacity="0.502" d="M1335.96 699.401C1335.96 701.137 1334.55 702.545 1332.86 702.545C1331.12 702.545 1329.76 701.137 1329.76 699.401C1329.76 697.664 1331.17 696.256 1332.86 696.256C1334.6 696.256 1335.96 697.664 1335.96 699.401Z" fill="white"/>
<path opacity="0.8656" d="M1335.96 670.912C1335.96 672.649 1334.55 674.057 1332.86 674.057C1331.12 674.057 1329.76 672.649 1329.76 670.912C1329.76 669.176 1331.17 667.768 1332.86 667.768C1334.6 667.768 1335.96 669.176 1335.96 670.912Z" fill="white"/>
<path opacity="0.6714" d="M1250.44 464.546C1250.44 466.283 1249.04 467.691 1247.35 467.691C1245.61 467.691 1244.25 466.283 1244.25 464.546C1244.25 462.81 1245.66 461.402 1247.35 461.402C1249.08 461.402 1250.44 462.81 1250.44 464.546Z" fill="white"/>
<path opacity="0.9386" d="M1226.04 450.278C1226.04 452.015 1224.63 453.423 1222.89 453.423C1221.16 453.423 1219.8 452.015 1219.8 450.278C1219.8 448.542 1221.2 447.134 1222.89 447.134C1224.63 447.181 1226.04 448.589 1226.04 450.278Z" fill="white"/>
<path opacity="0.8257" d="M1287.1 428.971C1287.1 430.707 1285.69 432.115 1283.95 432.115C1282.22 432.115 1280.86 430.707 1280.86 428.971C1280.86 427.234 1282.27 425.826 1283.95 425.826C1285.74 425.779 1287.1 427.234 1287.1 428.971Z" fill="white"/>
<path opacity="0.8822" d="M1238.24 400.482C1238.24 402.219 1236.83 403.627 1235.14 403.627C1233.41 403.627 1232 402.219 1232 400.482C1232 398.746 1233.41 397.338 1235.14 397.338C1236.83 397.338 1238.24 398.746 1238.24 400.482Z" fill="white"/>
<path opacity="0.7249" d="M1189.38 428.971C1189.38 430.707 1187.98 432.115 1186.29 432.115C1184.55 432.115 1183.19 430.707 1183.19 428.971C1183.19 427.234 1184.6 425.826 1186.29 425.826C1187.98 425.779 1189.38 427.234 1189.38 428.971Z" fill="white"/>
<path opacity="0.85" d="M1384.86 599.761C1384.86 601.498 1383.45 602.906 1381.76 602.906C1380.03 602.906 1378.67 601.498 1378.67 599.761C1378.67 598.025 1380.07 596.617 1381.76 596.617C1383.45 596.617 1384.86 598.025 1384.86 599.761Z" fill="white"/>
<path opacity="0.7173" d="M1384.86 542.831C1384.86 544.568 1383.45 545.976 1381.76 545.976C1380.03 545.976 1378.67 544.568 1378.67 542.831C1378.67 541.095 1380.07 539.687 1381.76 539.687C1383.45 539.687 1384.86 541.095 1384.86 542.831Z" fill="white"/>
<path opacity="0.7483" d="M1408 554.517C1407.48 554.142 1406.87 553.907 1406.17 553.907C1404.43 553.907 1403.07 555.315 1403.07 557.052C1403.07 558.788 1404.48 560.196 1406.17 560.196C1406.87 560.196 1407.48 559.962 1408 559.586V554.517Z" fill="white"/>
<path opacity="0.9308" d="M1189.38 656.691C1189.38 658.428 1187.98 659.836 1186.29 659.836C1184.55 659.836 1183.19 658.428 1183.19 656.691C1183.19 654.955 1184.6 653.547 1186.29 653.547C1187.98 653.547 1189.38 654.955 1189.38 656.691Z" fill="white"/>
<path opacity="0.9474" d="M1384.86 656.691C1384.86 658.428 1383.45 659.836 1381.76 659.836C1380.03 659.836 1378.67 658.428 1378.67 656.691C1378.67 654.955 1380.07 653.547 1381.76 653.547C1383.45 653.547 1384.86 654.955 1384.86 656.691Z" fill="white"/>
<path opacity="0.5499" d="M1335.96 457.413C1335.96 459.149 1334.55 460.557 1332.86 460.557C1331.12 460.557 1329.76 459.149 1329.76 457.413C1329.76 455.676 1331.17 454.268 1332.86 454.268C1334.6 454.268 1335.96 455.676 1335.96 457.413Z" fill="white"/>
<path opacity="0.5903" d="M1335.96 571.272C1335.96 573.009 1334.55 574.417 1332.86 574.417C1331.12 574.417 1329.76 573.009 1329.76 571.272C1329.76 569.536 1331.17 568.128 1332.86 568.128C1334.6 568.128 1335.96 569.583 1335.96 571.272Z" fill="white"/>
<path opacity="0.8516" d="M5.72587 0H4.69333L13.1883 4.928V118.507L0 126.157V126.767L13.5637 118.882L13.7045 118.788V4.6464L5.72587 0Z" fill="white"/>
<path opacity="0.9669" d="M13.4227 133.197L0.938477 125.922V111.373L13.4227 104.098L25.907 111.373V125.922L13.4227 133.197ZM1.45474 125.641L13.4227 132.587L25.3907 125.641V111.701L13.4227 104.755L1.45474 111.701V125.641Z" fill="white"/>
<path opacity="0.716" d="M21.12 0L13.423 4.5056L5.72589 0H4.69336L13.423 5.11573L22.1526 0H21.12Z" fill="white"/>
<path opacity="0.8412" d="M13.4229 4.50537L0 12.2963V12.9064L13.4229 5.1155L62.0459 33.4163V90.0179L13.4229 118.366L0 110.528V111.138L13.2821 118.882L13.4229 118.976L62.4213 90.4403L62.5621 90.3464V33.0878L13.4229 4.50537Z" fill="white"/>
<path opacity="0.994" d="M111.185 175.906L62.0459 147.277V90.018L111.185 61.3887L160.324 90.018V147.277L111.185 175.906ZM62.5622 146.948L111.185 175.249L159.808 146.948V90.3465L111.185 62.0457L62.5622 90.3465V146.948Z" fill="white"/>
<path opacity="0.9394" d="M111.185 175.906L62.0459 147.277V90.018L111.185 61.3887L160.324 90.018V147.277L111.185 175.906ZM62.5622 146.948L111.185 175.249L159.808 146.948V90.3465L111.185 62.0457L62.5622 90.3465V146.948Z" fill="white"/>
<path opacity="0.9775" d="M118.882 0L111.185 4.5056L103.441 0H102.408L111.185 5.11573L119.915 0H118.882Z" fill="white"/>
<path opacity="0.7716" d="M111.185 118.976L111.044 118.882L62.0459 90.3465V33.0878L111.185 4.4585L160.324 33.0878V90.3465L160.183 90.4404L111.185 118.976ZM62.5622 90.018L111.185 118.319L159.808 90.018V33.4164L111.185 5.11556L62.5622 33.4164V90.018Z" fill="white"/>
<path opacity="0.6343" d="M118.882 0L111.185 4.5056L103.441 0H102.408L111.185 5.11573L119.915 0H118.882Z" fill="white"/>
<path opacity="0.6715" d="M233.071 0V18.8672L208.9 32.9472L184.73 18.8672V0H184.213V19.1957L208.9 33.5573L233.587 19.1957V0H233.071Z" fill="white"/>
<path opacity="0.9459" d="M257.523 0V33.088L208.9 61.4357L160.277 33.088V0H159.761V33.4165L208.9 62.0459L258.039 33.4165V0H257.523Z" fill="white"/>
<path opacity="0.5261" d="M208.9 133.197L196.416 125.922V111.373L208.9 104.098L221.385 111.373V125.922L208.9 133.197ZM196.932 125.641L208.9 132.587L220.868 125.641V111.701L208.9 104.755L196.932 111.701V125.641Z" fill="white"/>
<path opacity="0.5223" d="M111.185 118.976L111.044 118.882L62.0459 90.3465V33.0878L111.185 4.4585L160.324 33.0878V90.3465L160.183 90.4404L111.185 118.976ZM62.5622 90.018L111.185 118.319L159.808 90.018V33.4164L111.185 5.11556L62.5622 33.4164V90.018Z" fill="white"/>
<path opacity="0.8962" d="M318.584 0V11.7333L306.616 18.7264L294.695 11.7333V0H294.178V12.0619L306.616 19.3365L319.1 12.0619V0H318.584Z" fill="white"/>
<path opacity="0.5211" d="M306.615 133.197L294.131 125.922V111.373L306.615 104.098L319.099 111.373V125.922L306.615 133.197ZM294.694 125.641L306.662 132.587L318.63 125.641V111.701L306.662 104.755L294.694 111.701V125.641Z" fill="white"/>
<path opacity="0.6374" d="M208.9 289.766L208.759 289.672L110.903 232.695V118.507L111.044 118.413L208.9 61.3887L209.041 61.4825L306.897 118.507V232.695L306.756 232.789L208.9 289.766ZM111.42 232.367L208.9 289.156L306.381 232.367V118.788L208.9 61.9988L111.42 118.788V232.367Z" fill="white"/>
<path opacity="0.5189" d="M208.9 118.976L208.759 118.882L159.761 90.3465V33.0878L208.9 4.4585L258.039 33.0878V90.3465L257.898 90.4404L208.9 118.976ZM160.277 90.018L208.9 118.319L257.523 90.018V33.4164L208.9 5.11556L160.277 33.4164V90.018Z" fill="white"/>
<path opacity="0.5082" d="M306.616 147.418L281.929 133.056V104.286L306.616 89.8774L331.303 104.286V133.056L306.616 147.418ZM282.445 132.728L306.616 146.808L330.786 132.728V104.568L306.616 90.4876L282.445 104.568V132.728Z" fill="white"/>
<path opacity="0.5792" d="M453 0V33.088L404.377 61.4357L355.755 33.088V0H355.238V33.4165L404.377 62.0459L453.376 33.4635L453.517 33.4165V0H453Z" fill="white"/>
<path opacity="0.9861" d="M306.616 118.976L306.475 118.882L257.477 90.3465V33.0878L306.616 4.4585L355.755 33.0878V90.3465L355.614 90.4404L306.616 118.976ZM258.04 90.018L306.663 118.319L355.286 90.018V33.4164L306.616 5.11556L258.04 33.4164V90.018Z" fill="white"/>
<path opacity="0.9808" d="M220.868 0V11.7333L208.9 18.7264L196.932 11.7333V0H196.416V12.0619L208.9 19.3365L221.385 12.0619V0H220.868Z" fill="white"/>
<path opacity="0.9699" d="M453 0V33.088L404.377 61.4357L355.755 33.088V0H355.238V33.4165L404.377 62.0459L453.376 33.4635L453.517 33.4165V0H453Z" fill="white"/>
<path opacity="0.9622" d="M208.9 175.906L159.761 147.277V90.018L208.9 61.3887L258.039 90.018V147.277L208.9 175.906ZM160.277 146.948L208.9 175.249L257.523 146.948V90.3465L208.9 62.0457L160.277 90.3465V146.948Z" fill="white"/>
<path opacity="0.6304" d="M208.9 175.906L159.761 147.277V90.018L208.9 61.3887L258.039 90.018V147.277L208.9 175.906ZM160.277 146.948L208.9 175.249L257.523 146.948V90.3465L208.9 62.0457L160.277 90.3465V146.948Z" fill="white"/>
<path opacity="0.8387" d="M306.616 318.255L281.929 303.847V275.076L306.616 260.715L331.303 275.076V303.847L306.616 318.255ZM282.445 303.565L306.616 317.645L330.786 303.565V275.405L306.616 261.325L282.445 275.405V303.565Z" fill="white"/>
<path opacity="0.9051" d="M306.616 346.697L257.477 318.067V260.809L306.616 232.179L355.755 260.809V318.067L306.616 346.697ZM258.04 317.786L306.663 346.086L355.286 317.786V261.137L306.663 232.836L258.04 261.137V317.786Z" fill="white"/>
<path opacity="0.6545" d="M355.238 0V33.088L306.615 61.4357L258.039 33.088V0H257.523V33.4165L306.615 62.0459L355.755 33.4165V0H355.238Z" fill="white"/>
<path opacity="0.9574" d="M412.075 0L404.378 4.5056L396.68 0H395.648L404.378 5.11573L413.107 0H412.075Z" fill="white"/>
<path opacity="0.9474" d="M404.378 289.766L404.237 289.672L306.381 232.695V118.507L306.522 118.413L404.378 61.3887L404.518 61.4825L502.374 118.507V232.695L502.234 232.789L404.378 289.766ZM306.897 232.367L404.378 289.156L501.858 232.367V118.788L404.378 61.9988L306.897 118.788V232.367Z" fill="white"/>
<path opacity="0.8086" d="M502.093 147.418L477.406 133.056V104.286L502.093 89.8774L526.78 104.286V133.056L502.093 147.418ZM477.923 132.728L502.093 146.808L526.264 132.728V104.568L502.093 90.4876L477.923 104.568V132.728Z" fill="white"/>
<path opacity="0.5531" d="M404.377 318.255L379.69 303.847V275.076L404.377 260.715L429.064 275.076V303.847L404.377 318.255ZM380.207 303.565L404.377 317.645L428.548 303.565V275.405L404.377 261.325L380.207 275.405V303.565Z" fill="white"/>
<path opacity="0.9538" d="M509.79 0L502.093 4.5056L494.396 0H493.363L502.093 5.11573L510.869 0H509.79Z" fill="white"/>
<path opacity="0.8754" d="M648.431 0V33.088L599.855 61.4357L551.232 33.088V0H550.716V33.4165L599.855 62.0459L648.994 33.4165V0H648.431Z" fill="white"/>
<path opacity="0.5051" d="M453 0V33.088L404.377 61.4357L355.755 33.088V0H355.238V33.4165L404.377 62.0459L453.376 33.4635L453.517 33.4165V0H453Z" fill="white"/>
<path opacity="0.8517" d="M591.078 0L599.573 4.928V118.507L502.093 175.296L404.612 118.507V4.928L413.107 0H412.075L404.237 4.55253L404.096 4.6464V118.788L501.999 175.812L502.093 175.906L599.949 118.882L600.09 118.788V4.6464L592.158 0H591.078Z" fill="white"/>
<path opacity="0.61" d="M599.855 133.197L587.371 125.922V111.373L599.855 104.098L612.34 111.373V125.922L599.855 133.197ZM587.887 125.641L599.855 132.587L611.823 125.641V111.701L599.855 104.755L587.887 111.701V125.641Z" fill="white"/>
<path opacity="0.6181" d="M404.377 175.906L355.238 147.277V90.018L404.377 61.3887L404.518 61.4825L453.517 90.018V147.277L453.376 147.371L404.377 175.906ZM355.755 146.948L404.377 175.249L453 146.948V90.3465L404.377 62.0457L355.755 90.3465V146.948Z" fill="white"/>
<path opacity="0.876" d="M502.093 289.766L501.952 289.672L404.096 232.695V118.507L404.236 118.413L502.093 61.3887L502.233 61.4825L600.089 118.507V232.695L599.949 232.789L502.093 289.766ZM404.612 232.367L502.093 289.156L599.573 232.367V118.788L502.093 61.9988L404.612 118.788V232.367Z" fill="white"/>
<path opacity="0.5845" d="M502.093 318.255L477.406 303.847V275.076L502.093 260.715L526.78 275.076V303.847L502.093 318.255ZM477.923 303.565L502.093 317.645L526.264 303.565V275.405L502.093 261.325L477.923 275.405V303.565Z" fill="white"/>
<path opacity="0.5432" d="M404.377 289.766L404.237 289.673L355.238 261.137V203.878L404.377 175.249L404.518 175.343L453.517 203.878V261.137L453.376 261.231L404.377 289.766ZM355.755 260.855L404.377 289.156L453 260.855V204.207L404.377 175.906L355.755 204.207V260.855Z" fill="white"/>
<path opacity="0.8471" d="M746.193 0V33.088L697.57 61.4357L648.994 33.088V0H648.431V33.4165L697.57 62.0459L746.71 33.4165V0H746.193Z" fill="white"/>
<path opacity="0.7774" d="M599.855 90.4876L575.168 76.0791V47.3089L599.855 32.9004L624.542 47.3089V76.0791L599.855 90.4876ZM575.684 75.7975L599.855 89.8775L624.026 75.7975V47.6375L599.855 33.5575L575.684 47.6375V75.7975Z" fill="white"/>
<path opacity="0.6187" d="M607.552 0L599.855 4.5056L592.158 0H591.078L599.855 5.11573L608.584 0H607.552Z" fill="white"/>
<path opacity="0.6525" d="M721.741 0V18.8672L697.57 32.9472L673.4 18.8672V0H672.883V19.1957L697.57 33.5573L722.257 19.1957V0H721.741Z" fill="white"/>
<path opacity="0.6134" d="M746.193 0V33.088L697.57 61.4357L648.994 33.088V0H648.431V33.4165L697.57 62.0459L746.71 33.4165V0H746.193Z" fill="white"/>
<path opacity="0.951" d="M502.092 175.906L452.953 147.277V90.018L502.092 61.3887L502.233 61.4825L551.232 90.018V147.277L551.091 147.371L502.092 175.906ZM453.516 146.948L502.139 175.249L550.762 146.948V90.3465L502.139 62.0457L453.516 90.3465V146.948Z" fill="white"/>
<path opacity="0.6256" d="M697.571 289.766L697.43 289.673L648.432 261.137V203.878L697.571 175.249L746.71 203.878V261.137L746.569 261.231L697.571 289.766ZM648.995 260.855L697.618 289.156L746.241 260.855V204.207L697.618 175.906L648.995 204.207V260.855Z" fill="white"/>
<path opacity="0.6699" d="M502.092 289.766L501.952 289.673L452.953 261.137V203.878L502.092 175.249L502.233 175.343L551.232 203.878V261.137L551.091 261.231L502.092 289.766ZM453.516 260.855L502.139 289.156L550.762 260.855V204.207L502.139 175.906L453.516 204.207V260.855Z" fill="white"/>
<path opacity="0.6867" d="M16.5673 132.915C16.5673 134.652 15.1593 136.06 13.4697 136.06C11.7331 136.06 10.3721 134.652 10.3721 132.915C10.3721 131.179 11.7801 129.771 13.4697 129.771C15.1593 129.724 16.5673 131.179 16.5673 132.915Z" fill="white"/>
<path opacity="0.975" d="M65.4247 90.2061C65.4247 91.9426 64.0168 93.3506 62.3272 93.3506C60.5906 93.3506 59.1826 91.9426 59.1826 90.2061C59.1826 88.4695 60.5906 87.0615 62.3272 87.0615C64.0168 87.0615 65.4247 88.4695 65.4247 90.2061Z" fill="white"/>
<path opacity="0.9056" d="M114.283 4.78711C114.283 6.52364 112.875 7.93164 111.139 7.93164C109.402 7.93164 108.041 6.52364 108.041 4.78711C108.041 3.05058 109.449 1.64258 111.139 1.64258C112.875 1.64258 114.283 3.05058 114.283 4.78711Z" fill="white"/>
<path opacity="0.862" d="M114.283 118.647C114.283 120.384 112.875 121.792 111.139 121.792C109.402 121.792 108.041 120.384 108.041 118.647C108.041 116.911 109.449 115.503 111.139 115.503C112.875 115.503 114.283 116.911 114.283 118.647Z" fill="white"/>
<path opacity="0.7249" d="M187.593 19.0078C187.593 20.7443 186.185 22.1523 184.495 22.1523C182.759 22.1523 181.351 20.7443 181.351 19.0078C181.351 17.2713 182.759 15.8633 184.495 15.8633C186.185 15.8633 187.593 17.2713 187.593 19.0078Z" fill="white"/>
<path opacity="0.5437" d="M236.45 19.0078C236.45 20.7443 235.042 22.1523 233.306 22.1523C231.569 22.1523 230.208 20.7443 230.208 19.0078C230.208 17.2713 231.616 15.8633 233.306 15.8633C235.042 15.8633 236.45 17.2713 236.45 19.0078Z" fill="white"/>
<path opacity="0.8559" d="M163.141 33.2759C163.141 35.0124 161.733 36.4204 160.043 36.4204C158.306 36.4204 156.945 35.0124 156.945 33.2759C156.945 31.5393 158.353 30.1313 160.043 30.1313C161.779 30.1313 163.141 31.5393 163.141 33.2759Z" fill="white"/>
<path opacity="0.691" d="M211.998 132.915C211.998 134.652 210.59 136.06 208.9 136.06C207.164 136.06 205.756 134.652 205.756 132.915C205.756 131.179 207.164 129.771 208.9 129.771C210.637 129.724 211.998 131.179 211.998 132.915Z" fill="white"/>
<path opacity="0.6169" d="M114.283 118.647C114.283 120.384 112.875 121.792 111.139 121.792C109.402 121.792 108.041 120.384 108.041 118.647C108.041 116.911 109.449 115.503 111.139 115.503C112.875 115.503 114.283 116.911 114.283 118.647Z" fill="white"/>
<path opacity="0.5121" d="M163.141 90.2061C163.141 91.9426 161.733 93.3506 160.043 93.3506C158.306 93.3506 156.898 91.9426 156.898 90.2061C156.898 88.4695 158.306 87.0615 160.043 87.0615C161.733 87.0615 163.141 88.4695 163.141 90.2061Z" fill="white"/>
<path opacity="0.8706" d="M309.76 19.0078C309.76 20.7443 308.352 22.1523 306.662 22.1523C304.926 22.1523 303.518 20.7443 303.518 19.0078C303.518 17.2713 304.926 15.8633 306.662 15.8633C308.352 15.8633 309.76 17.2713 309.76 19.0078Z" fill="white"/>
<path opacity="0.6625" d="M321.963 111.561C321.963 113.297 320.555 114.705 318.818 114.705C317.082 114.705 315.721 113.297 315.721 111.561C315.721 109.824 317.129 108.416 318.818 108.416C320.555 108.416 321.963 109.824 321.963 111.561Z" fill="white"/>
<path opacity="0.6645" d="M211.998 289.438C211.998 291.175 210.59 292.583 208.9 292.583C207.164 292.583 205.756 291.175 205.756 289.438C205.756 287.701 207.164 286.293 208.9 286.293C210.637 286.293 211.998 287.701 211.998 289.438Z" fill="white"/>
<path opacity="0.9538" d="M309.76 232.508C309.76 234.244 308.352 235.652 306.662 235.652C304.926 235.652 303.518 234.244 303.518 232.508C303.518 230.771 304.926 229.363 306.662 229.363C308.352 229.363 309.76 230.771 309.76 232.508Z" fill="white"/>
<path opacity="0.6405" d="M114.283 118.647C114.283 120.384 112.875 121.792 111.139 121.792C109.402 121.792 108.041 120.384 108.041 118.647C108.041 116.911 109.449 115.503 111.139 115.503C112.875 115.503 114.283 116.911 114.283 118.647Z" fill="white"/>
<path opacity="0.5246" d="M211.998 118.647C211.998 120.384 210.59 121.792 208.9 121.792C207.164 121.792 205.756 120.384 205.756 118.647C205.756 116.911 207.164 115.503 208.9 115.503C210.637 115.503 211.998 116.911 211.998 118.647Z" fill="white"/>
<path opacity="0.7605" d="M260.902 90.2061C260.902 91.9426 259.494 93.3506 257.758 93.3506C256.021 93.3506 254.66 91.9426 254.66 90.2061C254.66 88.4695 256.068 87.0615 257.758 87.0615C259.494 87.0615 260.902 88.4695 260.902 90.2061Z" fill="white"/>
<path opacity="0.6166" d="M260.902 33.2759C260.902 35.0124 259.494 36.4204 257.758 36.4204C256.021 36.4204 254.66 35.0124 254.66 33.2759C254.66 31.5393 256.068 30.1313 257.758 30.1313C259.494 30.1313 260.902 31.5393 260.902 33.2759Z" fill="white"/>
<path opacity="0.5032" d="M334.166 104.427C334.166 106.163 332.758 107.571 331.068 107.571C329.332 107.571 327.924 106.163 327.924 104.427C327.924 102.69 329.332 101.282 331.068 101.282C332.805 101.282 334.166 102.69 334.166 104.427Z" fill="white"/>
<path opacity="0.9074" d="M456.333 33.2759C456.333 35.0124 454.925 36.4204 453.235 36.4204C451.499 36.4204 450.138 35.0124 450.138 33.2759C450.138 31.5393 451.546 30.1313 453.235 30.1313C454.972 30.1313 456.333 31.5393 456.333 33.2759Z" fill="white"/>
<path opacity="0.6002" d="M194.586 0C195.149 0.516267 195.853 0.797867 196.651 0.797867C197.449 0.797867 198.2 0.469333 198.716 0H194.586Z" fill="white"/>
<path opacity="0.6002" d="M407.475 61.7173C407.475 63.4538 406.067 64.8618 404.378 64.8618C402.688 64.8618 401.28 63.4538 401.28 61.7173C401.28 59.9808 402.688 58.5728 404.378 58.5728C406.067 58.5728 407.475 59.9808 407.475 61.7173Z" fill="white"/>
<path opacity="0.6607" d="M260.902 90.2061C260.902 91.9426 259.494 93.3506 257.758 93.3506C256.021 93.3506 254.66 91.9426 254.66 90.2061C254.66 88.4695 256.068 87.0615 257.758 87.0615C259.494 87.0615 260.902 88.4695 260.902 90.2061Z" fill="white"/>
<path opacity="0.5786" d="M334.166 303.706C334.166 305.442 332.758 306.85 331.068 306.85C329.332 306.85 327.924 305.442 327.924 303.706C327.924 301.969 329.332 300.561 331.068 300.561C332.805 300.561 334.166 301.969 334.166 303.706Z" fill="white"/>
<path opacity="0.9283" d="M309.76 260.996C309.76 262.733 308.352 264.141 306.662 264.141C304.926 264.141 303.518 262.733 303.518 260.996C303.518 259.26 304.926 257.852 306.662 257.852C308.352 257.852 309.76 259.26 309.76 260.996Z" fill="white"/>
<path opacity="0.6334" d="M285.308 275.217C285.308 276.954 283.899 278.362 282.21 278.362C280.473 278.362 279.112 276.954 279.112 275.217C279.112 273.481 280.52 272.073 282.21 272.073C283.946 272.073 285.308 273.481 285.308 275.217Z" fill="white"/>
<path opacity="0.6939" d="M260.902 317.926C260.902 319.663 259.494 321.071 257.758 321.071C256.021 321.071 254.66 319.663 254.66 317.926C254.66 316.19 256.068 314.782 257.758 314.782C259.494 314.782 260.902 316.19 260.902 317.926Z" fill="white"/>
<path opacity="0.7705" d="M309.76 61.7173C309.76 63.4538 308.352 64.8618 306.662 64.8618C304.926 64.8618 303.518 63.4538 303.518 61.7173C303.518 59.9808 304.926 58.5728 306.662 58.5728C308.352 58.5728 309.76 59.9808 309.76 61.7173Z" fill="white"/>
<path opacity="0.8428" d="M358.617 33.2759C358.617 35.0124 357.209 36.4204 355.473 36.4204C353.736 36.4204 352.375 35.0124 352.375 33.2759C352.375 31.5393 353.783 30.1313 355.473 30.1313C357.209 30.1313 358.617 31.5393 358.617 33.2759Z" fill="white"/>
<path opacity="0.9917" d="M529.643 132.915C529.643 134.652 528.235 136.06 526.498 136.06C524.762 136.06 523.4 134.652 523.4 132.915C523.4 131.179 524.808 129.771 526.498 129.771C528.282 129.724 529.643 131.179 529.643 132.915Z" fill="white"/>
<path opacity="0.9612" d="M529.643 104.427C529.643 106.163 528.235 107.571 526.498 107.571C524.762 107.571 523.4 106.163 523.4 104.427C523.4 102.69 524.808 101.282 526.498 101.282C528.282 101.282 529.643 102.69 529.643 104.427Z" fill="white"/>
<path opacity="0.6836" d="M651.811 33.2759C651.811 35.0124 650.402 36.4204 648.666 36.4204C646.929 36.4204 645.568 35.0124 645.568 33.2759C645.568 31.5393 646.976 30.1313 648.666 30.1313C650.449 30.1313 651.811 31.5393 651.811 33.2759Z" fill="white"/>
<path opacity="0.9087" d="M358.617 33.2759C358.617 35.0124 357.209 36.4204 355.52 36.4204C353.783 36.4204 352.375 35.0124 352.375 33.2759C352.375 31.5393 353.783 30.1313 355.52 30.1313C357.209 30.1313 358.617 31.5393 358.617 33.2759Z" fill="white"/>
<path opacity="0.7254" d="M456.333 33.2759C456.333 35.0124 454.925 36.4204 453.235 36.4204C451.499 36.4204 450.138 35.0124 450.138 33.2759C450.138 31.5393 451.546 30.1313 453.235 30.1313C454.972 30.1313 456.333 31.5393 456.333 33.2759Z" fill="white"/>
<path opacity="0.5217" d="M407.475 118.647C407.475 120.384 406.067 121.792 404.378 121.792C402.688 121.792 401.28 120.384 401.28 118.647C401.28 116.911 402.688 115.503 404.378 115.503C406.067 115.503 407.475 116.911 407.475 118.647Z" fill="white"/>
<path opacity="0.758" d="M407.475 4.78711C407.475 6.52364 406.067 7.93164 404.378 7.93164C402.688 7.93164 401.28 6.52364 401.28 4.78711C401.28 3.05058 402.688 1.64258 404.378 1.64258C406.067 1.64258 407.475 3.05058 407.475 4.78711Z" fill="white"/>
<path opacity="0.5672" d="M590.75 125.781C590.75 127.518 589.342 128.926 587.605 128.926C585.869 128.926 584.508 127.518 584.508 125.781C584.508 124.045 585.916 122.637 587.605 122.637C589.342 122.637 590.75 124.045 590.75 125.781Z" fill="white"/>
<path opacity="0.6639" d="M615.202 111.561C615.202 113.297 613.794 114.705 612.058 114.705C610.321 114.705 608.96 113.297 608.96 111.561C608.96 109.824 610.368 108.416 612.058 108.416C613.794 108.416 615.202 109.824 615.202 111.561Z" fill="white"/>
<path opacity="0.7845" d="M602.953 104.427C602.953 106.163 601.545 107.571 599.855 107.571C598.119 107.571 596.758 106.163 596.758 104.427C596.758 102.69 598.166 101.282 599.855 101.282C601.545 101.282 602.953 102.69 602.953 104.427Z" fill="white"/>
<path opacity="0.8686" d="M505.237 317.926C505.237 319.663 503.829 321.071 502.093 321.071C500.356 321.071 498.995 319.663 498.995 317.926C498.995 316.19 500.403 314.782 502.093 314.782C503.829 314.782 505.237 316.19 505.237 317.926Z" fill="white"/>
<path opacity="0.9438" d="M456.333 204.066C456.333 205.802 454.925 207.21 453.235 207.21C451.499 207.21 450.138 205.802 450.138 204.066C450.138 202.329 451.546 200.921 453.235 200.921C454.972 200.921 456.333 202.329 456.333 204.066Z" fill="white"/>
<path opacity="0.8488" d="M407.475 175.578C407.475 177.314 406.067 178.722 404.378 178.722C402.688 178.722 401.28 177.314 401.28 175.578C401.28 173.841 402.688 172.433 404.378 172.433C406.067 172.433 407.475 173.841 407.475 175.578Z" fill="white"/>
<path opacity="0.5604" d="M651.811 33.2759C651.811 35.0124 650.402 36.4204 648.713 36.4204C646.976 36.4204 645.568 35.0124 645.568 33.2759C645.568 31.5393 646.976 30.1313 648.713 30.1313C650.449 30.1313 651.811 31.5393 651.811 33.2759Z" fill="white"/>
<path opacity="0.8646" d="M700.715 61.7173C700.715 63.4538 699.307 64.8618 697.617 64.8618C695.881 64.8618 694.52 63.4538 694.52 61.7173C694.52 59.9808 695.928 58.5728 697.617 58.5728C699.307 58.5728 700.715 59.9808 700.715 61.7173Z" fill="white"/>
<path opacity="0.5312" d="M602.953 90.2061C602.953 91.9426 601.545 93.3506 599.855 93.3506C598.119 93.3506 596.758 91.9426 596.758 90.2061C596.758 88.4695 598.166 87.0615 599.855 87.0615C601.545 87.0615 602.953 88.4695 602.953 90.2061Z" fill="white"/>
<path opacity="0.7235" d="M676.263 19.0078C676.263 20.7443 674.855 22.1523 673.118 22.1523C671.382 22.1523 670.021 20.7443 670.021 19.0078C670.021 17.2713 671.428 15.8633 673.118 15.8633C674.855 15.8633 676.263 17.2713 676.263 19.0078Z" fill="white"/>
<path opacity="0.5885" d="M725.12 19.0078C725.12 20.7443 723.712 22.1523 722.022 22.1523C720.286 22.1523 718.925 20.7443 718.925 19.0078C718.925 17.2713 720.333 15.8633 722.022 15.8633C723.712 15.8633 725.12 17.2713 725.12 19.0078Z" fill="white"/>
<path opacity="0.8858" d="M456.333 147.136C456.333 148.872 454.925 150.28 453.235 150.28C451.499 150.28 450.138 148.872 450.138 147.136C450.138 145.399 451.546 143.991 453.235 143.991C454.972 143.991 456.333 145.399 456.333 147.136Z" fill="white"/>
<path opacity="0.5875" d="M554.095 147.136C554.095 148.872 552.687 150.28 550.997 150.28C549.26 150.28 547.899 148.872 547.899 147.136C547.899 145.399 549.307 143.991 550.997 143.991C552.687 143.991 554.095 145.399 554.095 147.136Z" fill="white"/>
<path opacity="0.9745" d="M700.715 175.578C700.715 177.314 699.307 178.722 697.617 178.722C695.881 178.722 694.52 177.314 694.52 175.578C694.52 173.841 695.928 172.433 697.617 172.433C699.307 172.433 700.715 173.841 700.715 175.578Z" fill="white"/>
<path opacity="0.6677" d="M505.237 289.438C505.237 291.175 503.829 292.583 502.093 292.583C500.356 292.583 498.995 291.175 498.995 289.438C498.995 287.701 500.403 286.293 502.093 286.293C503.829 286.293 505.237 287.701 505.237 289.438Z" fill="white"/>
<path opacity="0.779" d="M505.237 175.578C505.237 177.314 503.829 178.722 502.093 178.722C500.356 178.722 498.995 177.314 498.995 175.578C498.995 173.841 500.403 172.433 502.093 172.433C503.829 172.433 505.237 173.841 505.237 175.578Z" fill="white"/>
</g>
</svg>
