<svg width="164" height="26" viewBox="0 0 164 26" fill="none" xmlns="http://www.w3.org/2000/svg">
    <g id="logo">
        <g clip-path="url(#clip0)">
            <path
                d="M5.12076 11.1041C6.61832 8.44827 8.16482 6.05437 9.5224 4.1752C11.7824 1.04693 15.1274 1.04626 17.3873 4.17456C18.7449 6.05384 20.2913 8.44798 21.7885 11.1041C23.2992 13.7833 24.526 16.3145 25.3995 18.4011C26.8296 21.8169 25.1852 24.6781 21.5105 25.1364C20.5963 25.2508 19.591 25.3439 18.5157 25.425C16.217 25.6006 14.2559 25.3638 12.8988 23.6626C11.2325 21.5718 11.2286 18.1056 13.0832 15.2007C13.178 15.0518 13.3988 15.1515 13.3754 15.3271C13.2624 16.1743 13.2273 17.3382 13.4624 18.6642C13.7364 20.2071 14.839 21.4162 16.343 21.4162C17.5728 21.4162 18.6235 20.6301 19.0417 19.5208C19.482 18.349 19.0664 16.9351 18.5677 15.5678C17.2196 11.8716 14.5481 8.6408 13.8728 7.9199C13.6118 7.64192 13.3144 7.6233 13.0351 7.9199C12.1221 8.89352 7.55196 14.4652 7.55196 19.5687C7.55196 22.02 8.96885 24.1308 11.0104 25.0925C11.2468 25.2042 11.1767 25.5713 10.9156 25.562C8.8782 25.4912 7.00503 25.3392 5.4094 25.1405C1.72584 24.6816 0.0808067 21.8128 1.51522 18.3891C2.38837 16.3051 3.613 13.7786 5.12076 11.1041Z"
                fill="currentColor" />
        </g>
        <path
            d="M44.1104 11.1198H46.5184C46.117 8.55897 43.9002 6.77529 41.0144 6.77529C37.6 6.77529 35.0391 9.28518 35.0391 13.4896C35.0391 17.6175 37.4853 20.1784 41.0845 20.1784C44.3142 20.1784 46.6266 18.1017 46.6266 14.7381V13.1711H41.3329V15.0184H44.3397C44.3015 16.8786 43.0593 18.0571 41.0972 18.0571C38.9122 18.0571 37.4152 16.4199 37.4152 13.4641C37.4152 10.5274 38.9377 8.89659 41.0463 8.89659C42.6197 8.89659 43.6899 9.73747 44.1104 11.1198ZM51.1161 6.95366H48.8101V20H51.1161V6.95366ZM57.7555 20.1911C60.6222 20.1911 62.4441 18.1717 62.4441 15.1458C62.4441 12.1136 60.6222 10.0878 57.7555 10.0878C54.8889 10.0878 53.067 12.1136 53.067 15.1458C53.067 18.1717 54.8889 20.1911 57.7555 20.1911ZM57.7683 18.3437C56.1821 18.3437 55.4049 16.9295 55.4049 15.1395C55.4049 13.3494 56.1821 11.9161 57.7683 11.9161C59.329 11.9161 60.1062 13.3494 60.1062 15.1395C60.1062 16.9295 59.329 18.3437 57.7683 18.3437ZM64.5033 20H66.7711V18.4584H66.9049C67.268 19.1719 68.026 20.172 69.7078 20.172C72.0138 20.172 73.7402 18.3437 73.7402 15.1204C73.7402 11.8588 71.9629 10.0878 69.7014 10.0878C67.9751 10.0878 67.2552 11.1262 66.9049 11.8333H66.8093V6.95366H64.5033V20ZM66.7647 15.1076C66.7647 13.2093 67.5801 11.9798 69.0644 11.9798C70.5996 11.9798 71.3895 13.2857 71.3895 15.1076C71.3895 16.9423 70.5869 18.28 69.0644 18.28C67.5928 18.28 66.7647 17.006 66.7647 15.1076ZM78.5163 20.1975C80.0515 20.1975 80.9688 19.4776 81.3893 18.6559H81.4657V20H83.6826V13.4513C83.6826 10.865 81.574 10.0878 79.7075 10.0878C77.6499 10.0878 76.0701 11.0052 75.5605 12.7888L77.7136 13.0946C77.943 12.4257 78.5927 11.8524 79.7203 11.8524C80.7905 11.8524 81.3765 12.4003 81.3765 13.3622V13.4004C81.3765 14.0629 80.6822 14.0947 78.9558 14.2795C77.0575 14.4833 75.242 15.0503 75.242 17.2544C75.242 19.1782 76.6498 20.1975 78.5163 20.1975ZM79.1151 18.503C78.1532 18.503 77.4652 18.0634 77.4652 17.2162C77.4652 16.3307 78.236 15.9612 79.268 15.8147C79.8732 15.7319 81.0835 15.579 81.3829 15.337V16.49C81.3829 17.5793 80.5038 18.503 79.1151 18.503ZM88.3074 6.95366H86.0014V20H88.3074V6.95366ZM96.9758 6.95366H94.3831L98.9761 20H101.894L106.493 6.95366H103.894L100.505 17.2226H100.371L96.9758 6.95366ZM108.109 20H110.415V10.2152H108.109V20ZM109.269 8.82652C110.001 8.82652 110.6 8.26594 110.6 7.57794C110.6 6.88358 110.001 6.323 109.269 6.323C108.53 6.323 107.931 6.88358 107.931 7.57794C107.931 8.26594 108.53 8.82652 109.269 8.82652ZM115.093 6.95366H112.787V20H115.093V6.95366ZM119.77 6.95366H117.464V20H119.77V6.95366ZM124.957 20.1975C126.492 20.1975 127.41 19.4776 127.83 18.6559H127.907V20H130.124V13.4513C130.124 10.865 128.015 10.0878 126.149 10.0878C124.091 10.0878 122.511 11.0052 122.001 12.7888L124.155 13.0946C124.384 12.4257 125.034 11.8524 126.161 11.8524C127.231 11.8524 127.818 12.4003 127.818 13.3622V13.4004C127.818 14.0629 127.123 14.0947 125.397 14.2795C123.498 14.4833 121.683 15.0503 121.683 17.2544C121.683 19.1782 123.091 20.1975 124.957 20.1975ZM125.556 18.503C124.594 18.503 123.906 18.0634 123.906 17.2162C123.906 16.3307 124.677 15.9612 125.709 15.8147C126.314 15.7319 127.524 15.579 127.824 15.337V16.49C127.824 17.5793 126.945 18.503 125.556 18.503ZM136.698 23.8731C139.341 23.8731 141.291 22.6628 141.291 20.1593V10.2152H139.016V11.8333H138.889C138.539 11.1262 137.806 10.0878 136.08 10.0878C133.818 10.0878 132.041 11.8588 132.041 15.0758C132.041 18.2673 133.818 19.8599 136.073 19.8599C137.749 19.8599 138.532 18.9616 138.889 18.2418H139.004V20.0956C139.004 21.5352 138.048 22.1277 136.736 22.1277C135.347 22.1277 134.736 21.4715 134.455 20.8982L132.379 21.4015C132.799 22.7711 134.207 23.8731 136.698 23.8731ZM136.717 18.0507C135.194 18.0507 134.392 16.8658 134.392 15.063C134.392 13.2857 135.182 11.9798 136.717 11.9798C138.201 11.9798 139.016 13.2093 139.016 15.063C139.016 16.9295 138.188 18.0507 136.717 18.0507ZM147.986 20.1911C150.266 20.1911 151.833 19.0763 152.241 17.3754L150.088 17.1334C149.776 17.9615 149.011 18.3947 148.018 18.3947C146.527 18.3947 145.54 17.4137 145.521 15.7383H152.337V15.0312C152.337 11.5976 150.273 10.0878 147.865 10.0878C145.062 10.0878 143.234 12.1454 143.234 15.165C143.234 18.2354 145.036 20.1911 147.986 20.1911ZM145.527 14.1839C145.597 12.9354 146.521 11.8843 147.897 11.8843C149.222 11.8843 150.114 12.8525 150.126 14.1839H145.527ZM162.021 12.8016C161.703 11.1453 160.378 10.0878 158.084 10.0878C155.727 10.0878 154.122 11.2472 154.128 13.0564C154.122 14.4833 155.001 15.4261 156.88 15.8147L158.549 16.1651C159.448 16.3626 159.868 16.7257 159.868 17.2799C159.868 17.9488 159.142 18.452 158.046 18.452C156.989 18.452 156.301 17.9934 156.103 17.1143L153.854 17.3309C154.141 19.1273 155.651 20.1911 158.052 20.1911C160.499 20.1911 162.225 18.9234 162.231 17.0697C162.225 15.6746 161.327 14.821 159.479 14.4196L157.81 14.0629C156.817 13.8399 156.422 13.4959 156.428 12.929C156.422 12.2665 157.154 11.8078 158.116 11.8078C159.18 11.8078 159.741 12.3875 159.919 13.0309L162.021 12.8016Z"
            fill="currentColor" />
        <defs>
            <clipPath id="clip0">
                <rect width="26.9081" height="25.5627" fill="white" transform="matrix(-1 0 0 1 26.9081 0)" />
            </clipPath>
        </defs>

    </g>
</svg>